<?xml version="1.0" encoding="UTF-8" standalone="no"?>
<svg
   width="300pt"
   height="300pt"
   viewBox="0 0 300 300"
   version="1.1"
   id="svg108"
   sodipodi:docname="Figure_1.svg"
   inkscape:export-filename="Figure_1.svg"
   inkscape:export-xdpi="96"
   inkscape:export-ydpi="96"
   inkscape:version="1.3 (0e150ed6c4, 2023-07-21)"
   xmlns:inkscape="http://www.inkscape.org/namespaces/inkscape"
   xmlns:sodipodi="http://sodipodi.sourceforge.net/DTD/sodipodi-0.dtd"
   xmlns="http://www.w3.org/2000/svg"
   xmlns:svg="http://www.w3.org/2000/svg"
   xmlns:rdf="http://www.w3.org/1999/02/22-rdf-syntax-ns#"
   xmlns:cc="http://creativecommons.org/ns#"
   xmlns:dc="http://purl.org/dc/elements/1.1/">
  <sodipodi:namedview
     id="namedview108"
     pagecolor="#ffffff"
     bordercolor="#000000"
     borderopacity="0.25"
     inkscape:showpageshadow="2"
     inkscape:pageopacity="0.0"
     inkscape:pagecheckerboard="0"
     inkscape:deskcolor="#d1d1d1"
     inkscape:document-units="pt"
     inkscape:zoom="0.85376533"
     inkscape:cx="68.519999"
     inkscape:cy="238.94154"
     inkscape:window-width="1896"
     inkscape:window-height="1034"
     inkscape:window-x="0"
     inkscape:window-y="0"
     inkscape:window-maximized="1"
     inkscape:current-layer="figure_1" />
  <metadata
     id="metadata1">
    <rdf:RDF>
      <cc:Work>
        <dc:type
           rdf:resource="http://purl.org/dc/dcmitype/StillImage" />
        <dc:date>2023-08-16T08:31:23.317953</dc:date>
        <dc:format>image/svg+xml</dc:format>
        <dc:creator>
          <cc:Agent>
            <dc:title>Matplotlib v3.7.2, https://matplotlib.org/</dc:title>
          </cc:Agent>
        </dc:creator>
      </cc:Work>
    </rdf:RDF>
  </metadata>
  <defs
     id="defs1">
    <style
       type="text/css"
       id="style1">*{stroke-linejoin: round; stroke-linecap: butt}</style>
  </defs>
  <g
     id="figure_1"
     transform="translate(-127.88856,-33.345993)">
    <g
       id="patch_1"
       transform="translate(103.31743,11.226459)">
      <path
         d="M 0,375.84 H 411.12 V 0 H 0 Z"
         style="fill:#ffffff;stroke-width:0.5;stroke-dasharray:none"
         id="path1" />
    </g>
    <g
       id="axes_1"
       transform="matrix(0.83177896,0,0,0.97596523,93.609595,10.683592)">
      <g
         id="patch_2"
         transform="matrix(0.833628,0,0,1,6.9230094,0)">
        <path
           d="M 41.611625,330.2085 H 401.48437 V 23.6205 H 41.611625 Z"
           style="fill:#ffffff"
           id="path2" />
      </g>
      <g
         id="line2d_13">
        <path
           d="m -1,154.11054 1.164045,-0.12416 1.662095,-0.0289 1.662094,-0.44662 1.662094,-2.11095 1.662094,1.33155 1.662094,0.94318 1.662094,2.48346 1.662095,-1.97588 1.662094,-0.0909 1.662094,2.8232 1.662094,1.52032 1.662094,1.26648 1.662095,0.68775 1.662094,1.56352 1.662094,-0.39154 1.662094,0.0757 1.662094,-0.20711 1.662095,0.0433 1.662094,-3.36942 1.662094,0.24589 1.662094,-1.44558 1.662094,-1.16506 1.662094,-0.54327 1.662095,2.56552 1.662094,-1.01184 1.662094,-0.31242 1.662094,0.21767 1.662094,-0.39286 1.662095,1.5998 1.662094,-0.66852 4.986282,-0.4085 1.662094,-1.4154 1.662095,2.85782 1.662094,-0.035 1.662094,-2.15186 1.662094,-0.73295 1.662094,0.4086 1.662095,2.18331 1.662094,-2.80166 1.662094,1.55996 1.662094,1.35528 1.662094,0.0254 1.662095,0.27077 1.662094,-0.29228 1.662094,0.86829 1.662094,0.27099 1.662094,1.09929 3.324189,-1.2243 1.662094,-0.63369 1.662094,0.8861 1.662094,-0.0754 1.662094,-0.67585 1.662095,-1.34174 1.662094,-0.42224 1.662094,-2.85703 1.662094,1.70584 1.662094,-1.537 1.662094,-0.12409 3.324194,-2.79345 1.66209,0.20976 1.66209,-3.04407 1.6621,2.4288 1.66209,-0.54205 1.6621,2.30631 1.66209,2.78399 1.66209,-0.5307 1.6621,2.73476 1.66209,3.64137 1.6621,0.67032 1.66209,0.13405 1.66209,3.08775 1.6621,-2.12358 1.66209,-0.22604 1.6621,-2.06445 1.66209,-2.37778 1.6621,-1.71303 1.66209,-2.4577 1.66209,-1.2496 1.6621,-1.59502 1.66209,-2.30197 1.6621,0.21849 1.66209,-1.05454 1.66209,1.1171 1.6621,-1.47781 1.66209,-3.13907 1.6621,0.0332 1.66209,-5.12252 1.6621,-4.06853 1.66209,-2.48782 1.6621,-1.94856 1.66209,1.66986 1.66209,4.57755 1.6621,5.89723 1.66209,12.89128 1.66209,7.399 1.6621,10.56268 1.66209,11.91352 1.6621,3.85696 1.66209,-0.67242 1.6621,-2.32284 1.66209,-6.61327 3.32419,-14.69825 1.66209,-4.53617 1.6621,-5.26319 1.66209,2.24931 1.6621,0.15088 1.66209,5.36571 1.66209,1.28424 1.6621,5.3056 1.66209,1.47422 3.32419,1.98945 1.66209,-3.75341 1.6621,-2.96652 1.66209,-3.47993 1.6621,-4.126 1.66209,-4.75749 3.32419,-16.68783 3.32419,-22.87059 1.66209,-12.4653 1.6621,-15.923323 1.66209,-13.907551 3.32419,-30.416601 1.66209,-8.7172 1.6621,-6.063876 1.66209,2.800446 1.6621,15.501202 1.66209,25.344562 1.66209,41.518031 3.32419,102.94896 1.6621,46.88504 1.66209,32.02771 1.66209,20.29862 1.6621,6.53386 1.66209,-9.81455 1.6621,-23.04891 3.32419,-50.12274 1.66209,-20.2863 1.66209,-11.33815 1.6621,-7.89569 1.66209,-5.34096 1.6621,-2.78075 1.66209,-1.73338 1.6621,-3.81569 3.32418,-2.91876 1.6621,-2.19952 1.66209,-2.9599 3.32419,-8.08421 3.32419,-5.89277 1.66209,-2.35175 1.6621,-2.01139 1.66209,-2.99516 1.6621,-1.73181 1.66209,-0.80609 1.66209,1.36124 1.6621,-0.28394 1.66209,-1.1094 1.6621,-0.23035 1.66209,-0.60921 1.66209,0.19536 1.6621,-0.14135 1.66209,0.25219 3.32419,-1.09008 1.6621,0.0289 1.66209,0.97298 1.66209,-0.31387 1.6621,-0.6956 1.66209,-0.26199 1.6621,-0.55284 1.66209,1.02267 1.66209,0.35628 1.6621,-1.09259 1.66209,0.47613 1.6621,-0.7978 1.66209,0.37608 1.6621,-0.17566 1.66209,1.02939 1.66209,-0.10908 1.6621,-0.72139 1.66209,0.18926 1.6621,1.88319 1.66209,-3.15571 1.6621,1.00464 1.66209,-0.17469 1.66209,1.33661 1.6621,-0.17713 3.32419,0.41694 1.66209,-2.1689 1.66209,1.28619 3.32419,-0.15355 1.6621,-1.06518 1.66209,0.86135 1.6621,0.57146 1.66209,0.19897 1.66209,-1.31748 1.6621,0.68842 1.66209,0.0673 1.6621,-1.16302 1.66209,-0.19752 1.66209,1.5801 1.6621,-1.50696 1.66209,-0.84731 1.6621,1.06724 3.32419,2.50067 1.66209,-1.41236 1.66209,0.007 1.6621,1.27727 1.66209,-0.54634 1.6621,-2.10669 1.66209,0.02 1.66209,-0.23222 3.32419,1.85075 1.6621,-0.4361 1.66209,-2.28885 1.6621,1.51277 1.66209,-0.29571 1.66209,0.18236 1.6621,0.37189 1.66209,-0.29462 1.6621,-0.58665 1.66209,1.95994 1.6621,-1.89181 1.66209,1.46421 v 0"
           clip-path="url(#p4a6c89574e)"
           style="fill:none;stroke:#1f77b4;stroke-width:5.54943625;stroke-linecap:square;stroke-dasharray:none"
           id="path80" />
      </g>
      <g
         id="patch_3">
        <path
           d="M 41.611625,330.2085 V 23.6205"
           style="fill:none;stroke:#000000;stroke-width:3.32966175;stroke-linecap:square;stroke-linejoin:miter;stroke-dasharray:none"
           id="path81" />
      </g>
      <g
         id="patch_4">
        <path
           d="M 401.48437,330.2085 V 23.6205"
           style="fill:none;stroke:#000000;stroke-width:3.32966175;stroke-linecap:square;stroke-linejoin:miter;stroke-dasharray:none"
           id="path82" />
      </g>
      <g
         id="patch_5">
        <path
           d="M 41.611625,330.2085 H 401.48437"
           style="fill:none;stroke:#000000;stroke-width:3.32966175;stroke-linecap:square;stroke-linejoin:miter;stroke-dasharray:none"
           id="path83" />
      </g>
      <g
         id="patch_6">
        <path
           d="M 41.611625,23.6205 H 401.48437"
           style="fill:none;stroke:#000000;stroke-width:3.32966175;stroke-linecap:square;stroke-linejoin:miter;stroke-dasharray:none"
           id="path84" />
      </g>
    </g>
  </g>
  <defs
     id="defs108">
    <clipPath
       id="p4a6c89574e">
      <rect
         x="41.611626"
         y="23.620501"
         width="359.87274"
         height="306.58801"
         id="rect108" />
    </clipPath>
  </defs>
</svg>
